<?xml version="1.0" encoding="UTF-8"?>
<svg xmlns="http://www.w3.org/2000/svg" xmlns:xlink="http://www.w3.org/1999/xlink" width="128px" height="128px" viewBox="0 0 128 128" version="1.1">
<g id="surface1">
<path style=" stroke:none;fill-rule:evenodd;fill:rgb(0%,0%,0%);fill-opacity:1;" d="M 64 0 C 99.347656 0 128 29.375 128 65.621094 C 128 94.605469 109.683594 119.195312 84.269531 127.878906 C 81.023438 128.523438 79.871094 126.476562 79.871094 124.730469 C 79.871094 122.566406 79.949219 115.5 79.949219 106.71875 C 79.949219 100.601562 77.902344 96.609375 75.601562 94.574219 C 89.855469 92.945312 104.832031 87.398438 104.832031 62.195312 C 104.832031 55.027344 102.347656 49.175781 98.238281 44.582031 C 98.90625 42.925781 101.101562 36.25 97.613281 27.210938 C 97.613281 27.210938 92.25 25.453125 80.03125 33.9375 C 74.917969 32.488281 69.441406 31.757812 64 31.730469 C 58.558594 31.757812 53.089844 32.488281 47.980469 33.9375 C 35.75 25.453125 30.375 27.210938 30.375 27.210938 C 26.898438 36.25 29.09375 42.925781 29.753906 44.582031 C 25.664062 49.175781 23.160156 55.027344 23.160156 62.195312 C 23.160156 87.335938 38.105469 92.964844 52.320312 94.625 C 50.488281 96.261719 48.832031 99.15625 48.257812 103.398438 C 44.609375 105.074219 35.339844 107.972656 29.632812 97.945312 C 29.632812 97.945312 26.246094 91.640625 19.820312 91.179688 C 19.820312 91.179688 13.582031 91.097656 19.386719 95.167969 C 19.386719 95.167969 23.578125 97.183594 26.488281 104.769531 C 26.488281 104.769531 30.246094 116.480469 48.050781 112.511719 C 48.082031 117.996094 48.140625 123.167969 48.140625 124.730469 C 48.140625 126.464844 46.964844 128.492188 43.769531 127.886719 C 18.335938 119.210938 0 94.609375 0 65.621094 C 0 29.375 28.660156 0 64 0 "/>
</g>
</svg>
