<?xml version="1.0" encoding="UTF-8"?>
<svg xmlns="http://www.w3.org/2000/svg" xmlns:xlink="http://www.w3.org/1999/xlink" width="128px" height="128px" viewBox="0 0 128 128" version="1.1">
<g id="surface1">
<path style=" stroke:none;fill-rule:nonzero;fill:rgb(0%,0%,0%);fill-opacity:1;" d="M 99.839844 21.332031 L 28.640625 21.332031 C 27.722656 21.289062 26.804688 21.429688 25.941406 21.742188 C 25.078125 22.050781 24.28125 22.53125 23.605469 23.152344 C 22.925781 23.769531 22.375 24.515625 21.984375 25.347656 C 21.597656 26.179688 21.375 27.082031 21.332031 28 L 21.332031 99.359375 C 21.386719 101.28125 22.175781 103.109375 23.53125 104.464844 C 24.890625 105.824219 26.71875 106.613281 28.640625 106.667969 L 99.839844 106.667969 C 101.707031 106.582031 103.46875 105.773438 104.742188 104.40625 C 106.019531 103.039062 106.710938 101.230469 106.667969 99.359375 L 106.667969 28 C 106.683594 27.105469 106.515625 26.21875 106.175781 25.394531 C 105.835938 24.566406 105.332031 23.820312 104.691406 23.195312 C 104.050781 22.570312 103.292969 22.082031 102.457031 21.761719 C 101.625 21.441406 100.734375 21.296875 99.839844 21.332031 Z M 48 92.480469 L 35.574219 92.480469 L 35.574219 54.453125 L 48 54.453125 Z M 42.078125 48.691406 C 41.210938 48.722656 40.347656 48.574219 39.542969 48.253906 C 38.734375 47.933594 38.003906 47.453125 37.394531 46.835938 C 36.78125 46.21875 36.304688 45.484375 35.992188 44.675781 C 35.679688 43.867188 35.535156 43 35.574219 42.132812 C 35.535156 41.257812 35.679688 40.382812 36 39.566406 C 36.320312 38.75 36.804688 38.007812 37.429688 37.390625 C 38.050781 36.773438 38.796875 36.292969 39.617188 35.980469 C 40.433594 35.664062 41.3125 35.527344 42.1875 35.574219 C 43.054688 35.542969 43.917969 35.691406 44.722656 36.011719 C 45.53125 36.332031 46.261719 36.816406 46.875 37.429688 C 47.484375 38.046875 47.960938 38.78125 48.273438 39.59375 C 48.589844 40.402344 48.730469 41.265625 48.691406 42.132812 C 48.730469 43.007812 48.585938 43.882812 48.265625 44.699219 C 47.949219 45.519531 47.460938 46.257812 46.839844 46.875 C 46.214844 47.492188 45.46875 47.976562 44.652344 48.289062 C 43.832031 48.601562 42.957031 48.738281 42.078125 48.691406 Z M 92.480469 92.480469 L 80 92.480469 L 80 71.679688 C 80 66.71875 78.238281 63.308594 73.8125 63.308594 C 72.4375 63.320312 71.101562 63.753906 69.984375 64.558594 C 68.867188 65.359375 68.023438 66.488281 67.574219 67.785156 C 67.226562 68.761719 67.082031 69.792969 67.148438 70.828125 L 67.148438 92.480469 L 54.878906 92.480469 L 54.878906 54.453125 L 67.148438 54.453125 L 67.148438 59.785156 C 68.238281 57.78125 69.859375 56.121094 71.835938 54.980469 C 73.8125 53.84375 76.066406 53.273438 78.347656 53.332031 C 86.398438 53.332031 92.480469 58.667969 92.480469 70.027344 Z M 92.480469 92.480469 "/>
</g>
</svg>
