<?xml version="1.0" encoding="UTF-8"?>
<svg xmlns="http://www.w3.org/2000/svg" xmlns:xlink="http://www.w3.org/1999/xlink" width="128px" height="128px" viewBox="0 0 128 128" version="1.1">
<g id="surface1">
<path style=" stroke:none;fill-rule:nonzero;fill:rgb(5.882353%,5.882353%,5.882353%);fill-opacity:1;" d="M 69.332031 64 C 69.332031 81.671875 55.007812 96 37.332031 96 C 19.660156 96 5.332031 81.671875 5.332031 64 C 5.332031 46.328125 19.660156 32 37.332031 32 C 55.007812 32 69.332031 46.328125 69.332031 64 Z M 69.332031 64 "/>
<path style=" stroke:none;fill-rule:nonzero;fill:rgb(5.882353%,5.882353%,5.882353%);fill-opacity:1;" d="M 122.667969 64 C 122.667969 78.726562 120.277344 90.667969 117.332031 90.667969 C 114.386719 90.667969 112 78.726562 112 64 C 112 49.273438 114.386719 37.332031 117.332031 37.332031 C 120.277344 37.332031 122.667969 49.273438 122.667969 64 Z M 122.667969 64 "/>
<path style=" stroke:none;fill-rule:nonzero;fill:rgb(5.882353%,5.882353%,5.882353%);fill-opacity:1;" d="M 90.667969 96 C 99.503906 96 106.667969 81.671875 106.667969 64 C 106.667969 46.328125 99.503906 32 90.667969 32 C 81.828125 32 74.667969 46.328125 74.667969 64 C 74.667969 81.671875 81.828125 96 90.667969 96 Z M 90.667969 96 "/>
</g>
</svg>
